<svg xmlns="http://www.w3.org/2000/svg" width="32" height="32" viewBox="0 0 64 64" fill="none" aria-hidden="true">
  <rect x="3" y="3" width="58" height="58" rx="3" fill="none" stroke="currentColor" stroke-width="2.5"/>
  <!-- Striped concentric P, drawn outside to in -->
  <path d="M16 50 V14 H32 a10 10 0 0 1 0 20 H21" fill="none" stroke="currentColor" stroke-width="2.2" stroke-linecap="round" stroke-linejoin="round"/>
  <path d="M19 47 V17 H31 a7 7 0 0 1 0 14 H22" fill="none" stroke="currentColor" stroke-width="1.8" stroke-linecap="round" stroke-linejoin="round"/>
  <path d="M22 44 V20 H30 a4 4 0 0 1 0 8 H23"  fill="none" stroke="currentColor" stroke-width="1.5" stroke-linecap="round" stroke-linejoin="round"/>
  <path d="M25 41 V23 H29 a1.5 1.5 0 0 1 0 3 H26" fill="none" stroke="currentColor" stroke-width="1.2" stroke-linecap="round" stroke-linejoin="round"/>
  <!-- Sparkle (lower-right). Two elongated diamonds crossed. Themeable via CSS custom property; falls back to currentColor. -->
  <path d="M48 40 L50 46 L56 48 L50 50 L48 56 L46 50 L40 48 L46 46 Z" fill="var(--sparkle, currentColor)"/>
</svg>
